<svg width="13" height="14" viewBox="0 0 13 14" fill="none" xmlns="http://www.w3.org/2000/svg">
<g id="vuesax/bold/bus">
<g id="vuesax/bold/bus_2">
<g id="bus">
<path id="Vector" d="M2.15216 7.95489V10.8625C2.15216 11.7778 2.90059 12.5316 3.82133 12.5316H9.09805C10.0134 12.5316 10.7672 11.7832 10.7672 10.8625V7.95489C10.7672 7.80413 10.6488 7.68567 10.498 7.68567H2.42138C2.27062 7.68567 2.15216 7.80413 2.15216 7.95489ZM4.77975 10.5825C4.65591 10.7117 4.48361 10.7817 4.30592 10.7817C4.26285 10.7817 4.21977 10.7763 4.1767 10.7709C4.13362 10.7602 4.09055 10.7494 4.04747 10.7279C4.00978 10.7117 3.96671 10.6902 3.9344 10.6686C3.89671 10.6417 3.85902 10.6148 3.8321 10.5825C3.70287 10.4586 3.63287 10.2863 3.63287 10.1087C3.63287 9.93097 3.70287 9.75867 3.8321 9.63483C3.85902 9.60252 3.89671 9.5756 3.9344 9.54867C3.96671 9.52714 4.00978 9.5056 4.04747 9.48945C4.09055 9.46791 4.13362 9.45714 4.1767 9.44637C4.39207 9.4033 4.6236 9.47868 4.77975 9.63483C4.90898 9.75867 4.97898 9.93097 4.97898 10.1087C4.97898 10.2863 4.90898 10.4586 4.77975 10.5825ZM9.08728 10.5825C9.06036 10.6148 9.02267 10.6417 8.98497 10.6686C8.95267 10.6902 8.90959 10.7117 8.8719 10.7279C8.82883 10.7494 8.78575 10.7602 8.74806 10.7709C8.6996 10.7763 8.65653 10.7817 8.61345 10.7817C8.57038 10.7817 8.5273 10.7763 8.48422 10.7709C8.44115 10.7602 8.39807 10.7494 8.355 10.7279C8.31731 10.7117 8.27423 10.6902 8.24193 10.6686C8.20424 10.6417 8.16654 10.6148 8.13962 10.5825C8.0104 10.4586 7.9404 10.2863 7.9404 10.1087C7.9404 9.93097 8.0104 9.75867 8.13962 9.63483C8.16654 9.60252 8.20424 9.5756 8.24193 9.54867C8.27423 9.52714 8.31731 9.5056 8.355 9.48945C8.39807 9.46791 8.44115 9.45714 8.48422 9.44637C8.57038 9.43022 8.65653 9.43022 8.74806 9.44637C8.78575 9.45714 8.82883 9.46791 8.8719 9.48945C8.90959 9.5056 8.95267 9.52714 8.98497 9.54867C9.02267 9.5756 9.06036 9.60252 9.08728 9.63483C9.2165 9.75867 9.2865 9.93097 9.2865 10.1087C9.2865 10.2863 9.2165 10.4586 9.08728 10.5825Z" fill="#647B64"/>
<path id="Vector_2" d="M9.09805 1.76318H3.82133C2.90059 1.76318 2.15216 2.51162 2.15216 3.43235V4.72461C2.15216 4.87537 2.27062 4.99383 2.42138 4.99383H10.498C10.6488 4.99383 10.7672 4.87537 10.7672 4.72461V3.43235C10.7672 2.51162 10.0188 1.76318 9.09805 1.76318ZM7.80579 3.78234H5.11359C4.89282 3.78234 4.70975 3.59927 4.70975 3.37851C4.70975 3.15775 4.89282 2.97468 5.11359 2.97468H7.80579C8.02655 2.97468 8.20962 3.15775 8.20962 3.37851C8.20962 3.59927 8.02655 3.78234 7.80579 3.78234Z" fill="#647B64"/>
<path id="Vector_3" d="M10.498 7.14706H2.42138C2.27062 7.14706 2.15216 7.0286 2.15216 6.87784V5.80096C2.15216 5.6502 2.27062 5.53174 2.42138 5.53174H10.498C10.6488 5.53174 10.7672 5.6502 10.7672 5.80096V6.87784C10.7672 7.0286 10.6488 7.14706 10.498 7.14706Z" fill="#647B64"/>
</g>
</g>
</g>
</svg>
