<svg width="32" height="32" viewBox="0 0 32 32" fill="none" xmlns="http://www.w3.org/2000/svg">
<g id="down-arrow 2" clip-path="url(#clip0_1_114)">
<g id="Group">
<g id="Group_2">
<path id="Vector" d="M17.7394 2.06964C17.4902 2.17361 17.3276 2.41621 17.3276 2.68544L17.3276 9.98831L0.666525 9.98831C0.298648 9.98831 6.01743e-05 10.2869 6.01904e-05 10.6548L6.06565e-05 21.3179C6.06725e-05 21.6858 0.298648 21.9844 0.666526 21.9844L17.3276 21.9844L17.3277 29.3152C17.3277 29.5845 17.4903 29.8271 17.7382 29.931C17.9874 30.0337 18.274 29.9777 18.4646 29.7871L31.8042 16.4915C31.9295 16.3662 32.0001 16.1969 32.0001 16.0197C32.0001 15.8424 31.9295 15.6731 31.8055 15.5478L18.466 2.21359C18.2753 2.02297 17.9887 1.96568 17.7394 2.06964Z" fill="white"/>
</g>
</g>
</g>
<defs>
<clipPath id="clip0_1_114">
<rect width="32" height="32" fill="white" transform="translate(6.10352e-05 32) rotate(-90)"/>
</clipPath>
</defs>
</svg>
