<svg width="14" height="14" viewBox="0 0 14 14" fill="none" xmlns="http://www.w3.org/2000/svg">
<g id="vuesax/bold/driving">
<g id="vuesax/bold/driving_2">
<g id="driving">
<path id="Vector" d="M6.99087 10.2436C6.77011 10.2436 6.58704 10.0606 6.58704 9.83979V9.30135C6.58704 9.08059 6.77011 8.89752 6.99087 8.89752C7.21163 8.89752 7.3947 9.08059 7.3947 9.30135V9.83979C7.3947 10.0606 7.21163 10.2436 6.99087 10.2436Z" fill="#647B64"/>
<path id="Vector_2" d="M6.99087 12.3971C6.77011 12.3971 6.58704 12.214 6.58704 11.9932V11.4548C6.58704 11.234 6.77011 11.051 6.99087 11.051C7.21163 11.051 7.3947 11.234 7.3947 11.4548V11.9932C7.3947 12.214 7.21163 12.3971 6.99087 12.3971Z" fill="#647B64"/>
<path id="Vector_3" d="M1.60635 12.3975C1.57404 12.3975 1.54174 12.3921 1.50943 12.3867C1.29406 12.3329 1.15944 12.1121 1.21329 11.8967L1.75173 9.74295C1.80557 9.52758 2.02095 9.39297 2.24171 9.44681C2.45709 9.50065 2.5917 9.72141 2.53785 9.93679L1.99941 12.0906C1.95095 12.2736 1.78942 12.3975 1.60635 12.3975Z" fill="#647B64"/>
<path id="Vector_4" d="M12.2426 12.2644C12.0596 12.2644 11.898 12.1405 11.8496 11.9574L11.3111 9.80368C11.2573 9.5883 11.3865 9.36754 11.6073 9.3137C11.8227 9.25986 12.0434 9.38908 12.0973 9.60984L12.6357 11.7636C12.6895 11.979 12.5603 12.1997 12.3396 12.2536C12.3073 12.259 12.2749 12.2644 12.2426 12.2644Z" fill="#647B64"/>
<path id="Vector_5" d="M10.8356 3.00145C10.8356 3.16299 10.701 3.29221 10.5449 3.29221H3.50743C3.3459 3.29221 3.21667 3.1576 3.21667 3.00145C3.21667 2.83992 3.35129 2.7107 3.50743 2.7107H3.90588L4.05664 2.00534C4.19664 1.31613 4.4874 0.686157 5.65043 0.686157H8.39109C9.55412 0.686157 9.85027 1.31613 9.99026 1.99995L10.141 2.70531H10.5395C10.701 2.70531 10.8356 2.83992 10.8356 3.00145Z" fill="#647B64"/>
<path id="Vector_6" d="M11.0017 5.2091C10.9425 4.56297 10.7702 3.87915 9.51565 3.87915H4.52969C3.27512 3.87915 3.1082 4.56835 3.04359 5.2091L2.82283 7.58901C2.79591 7.88515 2.89283 8.18129 3.09744 8.40744C3.30743 8.63358 3.59819 8.76281 3.91048 8.76281H4.64276C5.27812 8.76281 5.39658 8.40205 5.47734 8.15976L5.55811 7.92284C5.64965 7.65362 5.67118 7.58901 6.02117 7.58901H8.02417C8.37416 7.58901 8.38492 7.6267 8.48723 7.92284L8.56799 8.15976C8.64338 8.40205 8.76722 8.76281 9.39719 8.76281H10.1295C10.4364 8.76281 10.7325 8.63358 10.9425 8.40744C11.1471 8.18668 11.244 7.88515 11.2171 7.58901L11.0017 5.2091ZM5.84887 6.02753H4.68045C4.51892 6.02753 4.38969 5.89292 4.38969 5.73677C4.38969 5.58062 4.5243 5.44601 4.68045 5.44601H5.85425C6.01578 5.44601 6.14501 5.58062 6.14501 5.73677C6.14501 5.89292 6.0104 6.02753 5.84887 6.02753ZM9.36489 6.02753H8.19109C8.02955 6.02753 7.90033 5.89292 7.90033 5.73677C7.90033 5.58062 8.03494 5.44601 8.19109 5.44601H9.36489C9.52642 5.44601 9.65565 5.58062 9.65565 5.73677C9.65565 5.89292 9.52642 6.02753 9.36489 6.02753Z" fill="#647B64"/>
</g>
</g>
</g>
</svg>
