<svg width="139" height="33" viewBox="0 0 139 33" fill="none" xmlns="http://www.w3.org/2000/svg">
<g id="Group 2599">
<g id="A U">
<path d="M19.3112 22.7498C18.6521 22.7498 18.0598 22.3472 17.8173 21.7343L16.8536 19.2988C16.6111 18.6859 16.0188 18.2833 15.3597 18.2833H8.76184C8.09167 18.2833 7.49189 18.6993 7.25707 19.327L6.36707 21.7061C6.13226 22.3338 5.53248 22.7498 4.8623 22.7498H2.41622C1.26812 22.7498 0.490549 21.5804 0.934676 20.5216L9.13008 0.985126C9.38043 0.388322 9.96444 0 10.6116 0H13.8048C14.4541 0 15.0396 0.390823 15.2886 0.990476L23.4012 20.527C23.8406 21.585 23.0631 22.7498 21.9175 22.7498H19.3112ZM13.6076 10.1976C13.0979 8.79027 11.1102 8.78306 10.5904 10.1866L10.0237 11.7166C9.63508 12.7659 10.4113 13.8812 11.5303 13.8812H12.651C13.7651 13.8812 14.541 12.775 14.1616 11.7275L13.6076 10.1976Z" fill="#647B64"/>
<path d="M45.5317 23.8101C45.5317 25.1811 45.296 26.4343 44.8247 27.5696C44.3749 28.6835 43.7215 29.6475 42.8647 30.4615C42.0078 31.2541 40.9688 31.8754 39.7478 32.3252C38.5482 32.7751 37.2094 33 35.7313 33C34.2317 33 32.8822 32.7751 31.6826 32.3252C30.483 31.8754 29.4654 31.2541 28.63 30.4615C27.7945 29.6475 27.1519 28.6835 26.702 27.5696C26.2522 26.4343 26.0273 25.1811 26.0273 23.8101V17.1266C26.0273 16.2393 25.308 15.52 24.4206 15.52H24.3242H19.3367C18.6186 15.52 17.9877 15.0434 17.7913 14.3526L17.0333 11.6856C16.7417 10.6597 17.5122 9.63973 18.5787 9.63973H29.8832C30.7705 9.63973 31.4898 10.359 31.4898 11.2463V23.3603C31.4898 23.9815 31.5648 24.5706 31.7147 25.1276C31.8861 25.6845 32.1324 26.1879 32.4538 26.6378C32.7965 27.0662 33.2356 27.409 33.7712 27.666C34.3281 27.9231 34.9922 28.0516 35.7634 28.0516C36.5346 28.0516 37.1879 27.9231 37.7235 27.666C38.2804 27.409 38.7303 27.0662 39.073 26.6378C39.4158 26.1879 39.6621 25.6845 39.8121 25.1276C39.962 24.5706 40.037 23.9815 40.037 23.3603V11.2463C40.037 10.359 40.7563 9.63973 41.6436 9.63973H43.925C44.8123 9.63973 45.5317 10.359 45.5317 11.2463V23.8101Z" fill="#647B64"/>
</g>
<g id="AWESOME UI">
<path d="M57.2391 12.7759C57.4131 12.3761 57.8076 12.1175 58.2436 12.1175C58.681 12.1175 59.0765 12.3777 59.2495 12.7795L62.469 20.2529C62.7156 20.8252 62.2959 21.4631 61.6726 21.4631C61.3201 21.4631 61.0026 21.2496 60.8696 20.9231L60.654 20.3939C60.3906 19.7474 59.7619 19.3247 59.0638 19.3247H57.3156C56.6218 19.3247 55.9985 19.7486 55.7436 20.3939L55.532 20.9293C55.4048 21.2514 55.0936 21.4631 54.7472 21.4631C54.1395 21.4631 53.731 20.84 53.9735 20.2827L57.2391 12.7759ZM58.1903 17.8991C58.8896 17.8991 59.3728 17.1995 59.1253 16.5455C58.8004 15.6871 57.5875 15.6835 57.2574 16.5398C57.005 17.1948 57.4884 17.8991 58.1903 17.8991Z" fill="#647B64"/>
<path d="M63.134 13.2257C62.9721 12.6718 63.3875 12.1175 63.9647 12.1175C64.3577 12.1175 64.7014 12.3823 64.8015 12.7624L66.4366 18.9685C66.4386 18.9761 66.4455 18.9815 66.4534 18.9815C66.4611 18.9815 66.4679 18.9764 66.4701 18.9691L68.2797 12.937C68.4257 12.4506 68.8734 12.1175 69.3812 12.1175C69.8913 12.1175 70.3405 12.4535 70.4844 12.9429L72.2575 18.969C72.2597 18.9764 72.2665 18.9815 72.2742 18.9815C72.2821 18.9815 72.289 18.9762 72.2911 18.9686L73.9678 12.7406C74.0668 12.373 74.4002 12.1175 74.7809 12.1175C75.3425 12.1175 75.7467 12.6568 75.5891 13.1958L73.4001 20.6828C73.2649 21.1452 72.8408 21.4631 72.359 21.4631C71.8846 21.4631 71.4652 21.1548 71.3237 20.702L69.3743 14.4665C69.372 14.459 69.365 14.4539 69.3572 14.4539C69.3493 14.4539 69.3424 14.459 69.3401 14.4665L67.3907 20.702C67.2492 21.1548 66.8298 21.4631 66.3554 21.4631C65.8736 21.4631 65.4495 21.1452 65.3142 20.6828L63.134 13.2257Z" fill="#647B64"/>
<path d="M77.012 14.0975C77.012 13.004 77.8984 12.1175 78.992 12.1175H82.4768C82.8777 12.1175 83.2028 12.4425 83.2028 12.8435C83.2028 13.2444 82.8777 13.5695 82.4768 13.5695H79.8632C79.207 13.5695 78.6752 14.1014 78.6752 14.7575C78.6752 15.4136 79.207 15.9455 79.8632 15.9455H82.2656C82.6519 15.9455 82.9652 16.2587 82.9652 16.6451C82.9652 17.0315 82.6519 17.3447 82.2656 17.3447H79.9952C79.2661 17.3447 78.6752 17.9357 78.6752 18.6647C78.6752 19.3937 79.2661 19.9847 79.9952 19.9847H82.7012C83.1094 19.9847 83.4404 20.3156 83.4404 20.7239C83.4404 21.1321 83.1094 21.4631 82.7012 21.4631H78.992C77.8984 21.4631 77.012 20.5766 77.012 19.4831V14.0975Z" fill="#647B64"/>
<path d="M90.4251 13.4221C90.1168 13.7605 89.5589 13.7373 89.1481 13.5352C89.1262 13.5244 89.104 13.5139 89.0814 13.5035C88.7646 13.3451 88.4434 13.2659 88.1178 13.2659C87.9242 13.2659 87.7306 13.2923 87.537 13.3451C87.3434 13.3891 87.1674 13.4639 87.009 13.5695C86.8506 13.6663 86.7186 13.7983 86.613 13.9655C86.5162 14.1239 86.4678 14.3175 86.4678 14.5463C86.4678 14.7575 86.5118 14.9379 86.5998 15.0875C86.6878 15.2371 86.8066 15.3647 86.9562 15.4703C87.1146 15.5759 87.3038 15.6683 87.5238 15.7475C87.7438 15.8267 87.9858 15.9059 88.2498 15.9851C88.549 16.0819 88.857 16.1919 89.1738 16.3151C89.4994 16.4383 89.7942 16.6011 90.0582 16.8035C90.331 17.0059 90.551 17.2611 90.7182 17.5691C90.8942 17.8771 90.9822 18.2599 90.9822 18.7175C90.9822 19.2191 90.8898 19.6591 90.705 20.0375C90.5202 20.4071 90.2738 20.7151 89.9658 20.9615C89.6578 21.2079 89.297 21.3927 88.8834 21.5159C88.4698 21.6391 88.0342 21.7007 87.5766 21.7007C86.9694 21.7007 86.3754 21.5907 85.7946 21.3707C85.4636 21.2403 85.1669 21.0756 84.9044 20.8766C84.5738 20.6258 84.6069 20.1455 84.9102 19.8623C85.2535 19.5419 85.8026 19.6076 86.1984 19.8603C86.2835 19.9147 86.3733 19.9649 86.4678 20.0111C86.855 20.1959 87.2334 20.2883 87.603 20.2883C87.7966 20.2883 87.9946 20.2663 88.197 20.2223C88.3994 20.1695 88.5798 20.0859 88.7382 19.9715C88.9054 19.8571 89.0374 19.7163 89.1342 19.5491C89.2398 19.3731 89.2926 19.1575 89.2926 18.9023C89.2926 18.6559 89.2354 18.4535 89.121 18.2951C89.0066 18.1279 88.8526 17.9871 88.659 17.8727C88.4654 17.7495 88.2366 17.6439 87.9726 17.5559C87.7086 17.4679 87.4314 17.3755 87.141 17.2787C86.8594 17.1907 86.5778 17.0851 86.2962 16.9619C86.0146 16.8387 85.7594 16.6759 85.5306 16.4735C85.3106 16.2711 85.1302 16.0247 84.9894 15.7343C84.8486 15.4351 84.7782 15.0655 84.7782 14.6255C84.7782 14.1503 84.875 13.7411 85.0686 13.3979C85.271 13.0547 85.5306 12.7731 85.8474 12.5531C86.173 12.3243 86.5382 12.1571 86.943 12.0515C87.3566 11.9371 87.7746 11.8799 88.197 11.8799C88.6722 11.8799 89.1518 11.9635 89.6358 12.1307C89.8849 12.2152 90.1171 12.3211 90.3325 12.4483C90.6801 12.6537 90.697 13.1237 90.4251 13.4221Z" fill="#647B64"/>
<path d="M92.1995 16.7639C92.1995 16.0159 92.3227 15.3427 92.5691 14.7443C92.8243 14.1371 93.1719 13.6223 93.6119 13.1999C94.0607 12.7775 94.5887 12.4519 95.1959 12.2231C95.8119 11.9943 96.4807 11.8799 97.2023 11.8799C97.9327 11.8799 98.6059 11.9943 99.2219 12.2231C99.8379 12.4519 100.37 12.7775 100.819 13.1999C101.268 13.6223 101.615 14.1371 101.862 14.7443C102.117 15.3427 102.245 16.0159 102.245 16.7639C102.245 17.4943 102.117 18.1631 101.862 18.7703C101.615 19.3687 101.268 19.8879 100.819 20.3279C100.37 20.7591 99.8379 21.0979 99.2219 21.3443C98.6059 21.5819 97.9327 21.7007 97.2023 21.7007C96.4807 21.7007 95.8119 21.5819 95.1959 21.3443C94.5887 21.0979 94.0607 20.7591 93.6119 20.3279C93.1719 19.8879 92.8243 19.3687 92.5691 18.7703C92.3227 18.1631 92.1995 17.4943 92.1995 16.7639ZM94.0079 16.7639C94.0079 17.2655 94.0827 17.7275 94.2323 18.1499C94.3907 18.5635 94.6107 18.9243 94.8923 19.2323C95.1827 19.5403 95.5215 19.7823 95.9087 19.9583C96.3047 20.1255 96.7403 20.2091 97.2155 20.2091C97.6907 20.2091 98.1263 20.1255 98.5223 19.9583C98.9183 19.7823 99.2571 19.5403 99.5387 19.2323C99.8291 18.9243 100.049 18.5635 100.199 18.1499C100.357 17.7275 100.436 17.2655 100.436 16.7639C100.436 16.2799 100.357 15.8311 100.199 15.4175C100.049 15.0039 99.8335 14.6431 99.5519 14.3351C99.2703 14.0271 98.9315 13.7851 98.5355 13.6091C98.1395 13.4331 97.6995 13.3451 97.2155 13.3451C96.7315 13.3451 96.2915 13.4331 95.8955 13.6091C95.5083 13.7851 95.1739 14.0271 94.8923 14.3351C94.6107 14.6431 94.3907 15.0039 94.2323 15.4175C94.0827 15.8311 94.0079 16.2799 94.0079 16.7639Z" fill="#647B64"/>
<path d="M103.85 13.648C103.85 12.8027 104.535 12.1175 105.381 12.1175C106.023 12.1175 106.597 12.5188 106.818 13.1222L108.873 18.7385C108.877 18.7497 108.887 18.7571 108.899 18.7571C108.911 18.7571 108.922 18.7496 108.926 18.7384L110.955 13.1308C111.175 12.5226 111.752 12.1175 112.399 12.1175C113.247 12.1175 113.935 12.8052 113.935 13.6534V20.6381C113.935 21.0937 113.566 21.4631 113.11 21.4631C112.654 21.4631 112.285 21.0937 112.285 20.6381V13.9679C112.285 13.9593 112.278 13.9523 112.269 13.9523C112.263 13.9523 112.257 13.9563 112.255 13.9624L109.625 20.9211C109.502 21.2473 109.19 21.4631 108.841 21.4631C108.491 21.4631 108.178 21.2455 108.056 20.9175L105.464 13.9624C105.462 13.9563 105.456 13.9523 105.45 13.9523C105.441 13.9523 105.434 13.9593 105.434 13.9679V20.6711C105.434 21.1085 105.08 21.4631 104.642 21.4631C104.205 21.4631 103.85 21.1085 103.85 20.6711V13.648Z" fill="#647B64"/>
<path d="M115.993 14.0975C115.993 13.004 116.88 12.1175 117.973 12.1175H121.458C121.859 12.1175 122.184 12.4425 122.184 12.8435C122.184 13.2444 121.859 13.5695 121.458 13.5695H118.844C118.188 13.5695 117.656 14.1014 117.656 14.7575C117.656 15.4136 118.188 15.9455 118.844 15.9455H121.247C121.633 15.9455 121.946 16.2587 121.946 16.6451C121.946 17.0315 121.633 17.3447 121.247 17.3447H118.976C118.247 17.3447 117.656 17.9357 117.656 18.6647C117.656 19.3937 118.247 19.9847 118.976 19.9847H121.682C122.091 19.9847 122.422 20.3156 122.422 20.7239C122.422 21.1321 122.091 21.4631 121.682 21.4631H117.973C116.88 21.4631 115.993 20.5766 115.993 19.4831V14.0975Z" fill="#647B64"/>
<path d="M134.795 18.0311C134.795 18.5943 134.698 19.1047 134.504 19.5623C134.311 20.0111 134.047 20.3939 133.712 20.7107C133.378 21.0275 132.982 21.2739 132.524 21.4499C132.067 21.6171 131.569 21.7007 131.033 21.7007C130.496 21.7007 129.999 21.6171 129.541 21.4499C129.083 21.2739 128.683 21.0275 128.34 20.7107C128.005 20.3939 127.741 20.0111 127.548 19.5623C127.363 19.1047 127.271 18.5943 127.271 18.0311V12.9491C127.271 12.4898 127.643 12.1175 128.102 12.1175C128.562 12.1175 128.934 12.4898 128.934 12.9491V17.9651C128.934 18.2379 128.969 18.5107 129.039 18.7835C129.11 19.0475 129.224 19.2851 129.383 19.4963C129.55 19.7075 129.765 19.8791 130.029 20.0111C130.302 20.1431 130.637 20.2091 131.033 20.2091C131.429 20.2091 131.759 20.1431 132.023 20.0111C132.295 19.8791 132.511 19.7075 132.669 19.4963C132.837 19.2851 132.955 19.0475 133.026 18.7835C133.096 18.5107 133.131 18.2379 133.131 17.9651V12.9491C133.131 12.4898 133.504 12.1175 133.963 12.1175C134.422 12.1175 134.795 12.4898 134.795 12.9491V18.0311Z" fill="#647B64"/>
<path d="M136.773 12.9491C136.773 12.4898 137.145 12.1175 137.604 12.1175C138.064 12.1175 138.436 12.4898 138.436 12.9491V20.6315C138.436 21.0908 138.064 21.4631 137.604 21.4631C137.145 21.4631 136.773 21.0908 136.773 20.6315V12.9491Z" fill="#647B64"/>
</g>
</g>
</svg>
