<svg width="29" height="28" viewBox="0 0 29 28" fill="none" xmlns="http://www.w3.org/2000/svg">
<g id="vuesax/bold/iost-(iost)">
<g id="vuesax/bold/iost-(iost)_2">
<g id="iost-(iost)">
<path id="Vector" d="M22.9037 7.50676L15.3401 3.06168C14.607 2.63113 13.711 2.63113 12.9779 3.06168L5.41426 7.50676C4.70444 7.92567 4.26227 8.69367 4.26227 9.50822V18.4799C4.26227 19.306 4.70444 20.0624 5.41426 20.4813L12.9779 24.9264C13.711 25.3569 14.607 25.3569 15.3401 24.9264L22.9037 20.4813C23.6136 20.0624 24.0557 19.2944 24.0557 18.4799V9.50822C24.0557 8.69367 23.6136 7.92567 22.9037 7.50676ZM20.4368 18.2355L14.6187 21.7264C14.479 21.8079 14.3277 21.8544 14.1648 21.8544C14.0019 21.8544 13.8506 21.8079 13.711 21.7264L7.89281 18.2355C7.4739 17.9911 7.34589 17.4559 7.59025 17.0369C7.83461 16.618 8.36992 16.49 8.78883 16.7344L14.1532 19.9577L18.2725 17.4791L16.1081 16.1758L15.3518 16.9322C15.1772 17.1068 14.9561 17.1882 14.735 17.1882C14.5139 17.1882 14.2928 17.1068 14.1183 16.9322C13.7808 16.5948 13.7808 16.0362 14.1183 15.6988L14.5605 15.2566L12.4659 13.9999L11.8608 14.6049C11.6863 14.7795 11.4652 14.861 11.2441 14.861C11.023 14.861 10.8019 14.7795 10.6274 14.6049C10.2899 14.2675 10.2899 13.709 10.6274 13.3715L10.9299 13.0689L7.89281 11.242C7.62517 11.0791 7.47392 10.7999 7.47392 10.4973C7.47392 10.1948 7.63681 9.90386 7.89281 9.75259L13.711 6.26168C13.9903 6.09877 14.3394 6.09877 14.607 6.26168L20.4252 9.75259C20.8441 9.99695 20.9721 10.5322 20.7277 10.9511C20.4834 11.3584 19.9481 11.498 19.5292 11.2537L14.1648 8.03039L10.0456 10.5089L12.2099 11.8122L12.9662 11.0559C13.3037 10.7184 13.8623 10.7184 14.1998 11.0559C14.5372 11.3933 14.5372 11.9519 14.1998 12.2893L13.7576 12.7315L15.8521 13.9882L16.4572 13.3831C16.7946 13.0457 17.3532 13.0457 17.6907 13.3831C18.0281 13.7206 18.0281 14.2791 17.6907 14.6166L17.3881 14.9191L20.4252 16.746C20.6928 16.9089 20.8441 17.1882 20.8441 17.4908C20.8441 17.7933 20.6928 18.0842 20.4368 18.2355Z" fill="white"/>
</g>
</g>
</g>
</svg>
