<svg width="29" height="28" viewBox="0 0 29 28" fill="none" xmlns="http://www.w3.org/2000/svg">
<g id="vuesax/bold/python">
<g id="vuesax/bold/python_2">
<g id="python">
<g id="Group">
<path id="Vector" d="M18.1327 2.63077C15.8055 2.27005 13.4317 2.27005 11.1044 2.63077C10.1502 2.78205 9.45202 3.59659 9.45202 4.55077V8.83294H5.16985C4.21567 8.83294 3.40113 9.53114 3.24985 10.4853C2.88913 12.8126 2.88913 15.1864 3.24985 17.5137C3.40113 18.4678 4.21567 19.166 5.16985 19.166H7.12475C7.45057 19.166 7.70657 18.91 7.70657 18.5842V16.5828C7.70657 14.1973 9.64984 12.254 12.0353 12.254H17.2018C17.6673 12.254 18.0397 11.8817 18.0397 11.4162V7.66931C18.0397 7.34349 18.2957 7.08749 18.6215 7.08749H19.2033C19.5291 7.08749 19.7851 6.83149 19.7851 6.50567V4.55077C19.7851 3.59659 19.0869 2.78205 18.1327 2.63077ZM12.6753 6.52893C12.1982 6.52893 11.7444 6.07512 11.7444 5.59803C11.7444 5.10931 12.1982 4.65549 12.6753 4.65549C12.908 4.65549 13.164 4.76023 13.3269 4.92314C13.5015 5.08605 13.6179 5.35367 13.6179 5.59803C13.6179 6.07512 13.164 6.52893 12.6753 6.52893Z" fill="#647B64"/>
<path id="Vector_2" d="M25.9861 10.4851C25.8348 9.5309 25.0203 8.8327 24.0661 8.8327H20.3657C20.0399 8.8327 19.7839 9.0887 19.7839 9.41452V11.416C19.7839 12.8356 18.6319 13.9993 17.2006 13.9993H12.0341C10.6028 13.9993 9.45081 15.1513 9.45081 16.5825V23.448C9.45081 24.4022 10.149 25.2167 11.1032 25.368C13.4305 25.7287 15.8043 25.7287 18.1315 25.368C19.0857 25.2167 19.7839 24.4022 19.7839 23.448V19.1658H24.0661C25.0203 19.1658 25.8348 18.4676 25.9861 17.5134C26.3468 15.1861 26.3468 12.8124 25.9861 10.4851ZM16.5606 23.3433C16.0836 23.3433 15.6181 22.8894 15.6181 22.4007C15.6181 21.912 16.0719 21.4582 16.5606 21.4582C16.7817 21.4582 17.0494 21.5629 17.2123 21.7142C17.3868 21.8771 17.5032 22.1563 17.5032 22.3891C17.4915 22.8894 17.0377 23.3433 16.5606 23.3433Z" fill="#647B64"/>
</g>
</g>
</g>
</g>
</svg>
