<svg width="14" height="13" viewBox="0 0 14 13" fill="none" xmlns="http://www.w3.org/2000/svg">
<g id="vuesax/bold/ship">
<g id="vuesax/bold/ship_2">
<g id="ship">
<path id="Vector" d="M12.176 6.8941L11.9553 7.8956C11.573 9.61861 10.2215 10.8463 8.27235 10.8463H5.70937C3.76021 10.8463 2.40872 9.61861 2.02643 7.8956L1.80567 6.8941C1.69798 6.40412 1.98874 5.84952 2.45718 5.66107L3.22177 5.35416L6.18858 4.1642C6.44703 4.0619 6.72164 4.00806 6.99086 4.00806C7.26008 4.00806 7.53468 4.0619 7.79313 4.1642L10.7599 5.35416L11.5245 5.66107C11.993 5.84952 12.2837 6.40412 12.176 6.8941Z" fill="#647B64"/>
<path id="Vector_2" d="M10.7606 3.30795V4.0833C10.7606 4.27176 10.5668 4.40637 10.3891 4.33099L8.08998 3.41025C7.38462 3.13565 6.5985 3.13565 5.88776 3.41564L3.594 4.33637C3.41631 4.41175 3.22247 4.27714 3.22247 4.08869V3.30795C3.22247 2.41952 3.94937 1.69263 4.8378 1.69263H9.14532C10.0337 1.69263 10.7606 2.41952 10.7606 3.30795Z" fill="#647B64"/>
<path id="Vector_3" d="M8.33783 1.69296H5.64563V0.616078C5.64563 0.319935 5.88793 0.0776367 6.18407 0.0776367H7.79939C8.09554 0.0776367 8.33783 0.319935 8.33783 0.616078V1.69296Z" fill="#647B64"/>
</g>
</g>
</g>
</svg>
