<svg width="16" height="16" viewBox="0 0 16 16" fill="none" xmlns="http://www.w3.org/2000/svg">
<g id="vuesax/bold/smart-car">
<g id="vuesax/bold/smart-car_2">
<g id="smart-car">
<path id="Vector" d="M12.6758 5.96159C12.6129 5.96159 12.5501 5.94903 12.4873 5.9239C12.2486 5.81711 12.1418 5.54071 12.2423 5.302C12.3617 5.03188 12.2926 4.63613 12.0727 4.30948C11.8528 3.97654 11.5199 3.7504 11.2184 3.76924C10.942 3.76924 10.7472 3.56194 10.741 3.30439C10.741 3.04055 10.9483 2.83325 11.2058 2.82697C11.8528 2.81441 12.4622 3.18503 12.8579 3.7818C13.26 4.38486 13.3542 5.10727 13.1092 5.67263C13.0338 5.8548 12.8579 5.96159 12.6758 5.96159Z" fill="white"/>
<path id="Vector_2" d="M14.6296 6.58283C14.5856 6.58283 14.5479 6.57655 14.5039 6.56399C14.2527 6.49489 14.1082 6.23733 14.1773 5.98606C14.416 5.13174 14.215 4.11408 13.6433 3.25976C13.0717 2.40543 12.2048 1.83379 11.3191 1.72699C11.0615 1.69559 10.8793 1.46316 10.9107 1.2056C10.9422 0.94805 11.1809 0.759596 11.4321 0.797287C12.5817 0.935487 13.6999 1.66418 14.4223 2.74465C15.1447 3.82512 15.3897 5.13174 15.0819 6.2499C15.0253 6.44463 14.8369 6.58283 14.6296 6.58283Z" fill="white"/>
<g id="Group">
<path id="Vector_3" d="M11.6785 7.39929C11.6785 7.58774 11.5215 7.74479 11.333 7.74479H3.07871C2.89026 7.74479 2.73322 7.58774 2.73322 7.39929C2.73322 7.21083 2.89026 7.05379 3.07871 7.05379H3.54357L3.71946 6.22459C3.88279 5.42052 4.22829 4.68555 5.59772 4.68555H8.82029C10.1897 4.68555 10.5289 5.4268 10.6985 6.22459L10.8744 7.05379H11.3393C11.5215 7.05379 11.6785 7.21083 11.6785 7.39929Z" fill="white"/>
<path id="Vector_4" d="M11.8726 9.99361C11.8035 9.2398 11.6024 8.42944 10.1325 8.42944H4.27785C2.8079 8.42944 2.60688 9.2398 2.53779 9.99361L2.28023 12.789C2.24882 13.1345 2.36189 13.4863 2.6006 13.7501C2.84559 14.014 3.18481 14.1647 3.55544 14.1647H4.41605C5.1573 14.1647 5.30178 13.7376 5.39601 13.4612L5.49024 13.1848C5.59703 12.8707 5.62215 12.789 6.03675 12.789H8.38615C8.80075 12.789 8.81331 12.833 8.93267 13.1848L9.0269 13.4612C9.12112 13.7439 9.25932 14.1647 10.0069 14.1647H10.8675C11.2318 14.1647 11.5773 14.014 11.8223 13.7501C12.061 13.4863 12.1741 13.1408 12.1427 12.789L11.8726 9.99361ZM5.82945 10.9484H4.45374C4.26528 10.9484 4.10824 10.7914 4.10824 10.6029C4.10824 10.4145 4.26528 10.2574 4.45374 10.2574H5.82945C6.01791 10.2574 6.17495 10.4145 6.17495 10.6029C6.17495 10.7914 6.01791 10.9484 5.82945 10.9484ZM9.9566 10.9484H8.58089C8.39243 10.9484 8.23539 10.7914 8.23539 10.6029C8.23539 10.4145 8.39243 10.2574 8.58089 10.2574H9.9566C10.1451 10.2574 10.3021 10.4145 10.3021 10.6029C10.3021 10.7914 10.1451 10.9484 9.9566 10.9484Z" fill="white"/>
</g>
</g>
</g>
</g>
</svg>
