<svg width="13" height="9" viewBox="0 0 13 9" fill="none" xmlns="http://www.w3.org/2000/svg">
<path id="Vector" d="M12.8781 4.03522L9.07826 0.232615C9.00503 0.175573 8.91355 0.147292 8.82099 0.153086C8.72843 0.15888 8.64116 0.198349 8.57558 0.264081C8.51001 0.329812 8.47063 0.417281 8.46485 0.510058C8.45907 0.602835 8.48728 0.694536 8.54419 0.767934L11.6934 3.92447H1.09178C0.990841 3.92447 0.894034 3.96466 0.822657 4.03621C0.751281 4.10775 0.711182 4.20478 0.711182 4.30596C0.711182 4.40714 0.751281 4.50417 0.822657 4.57572C0.894034 4.64726 0.990841 4.68745 1.09178 4.68745H11.6872L8.54419 7.83783C8.50157 7.87103 8.46648 7.91294 8.44126 7.96078C8.41603 8.00861 8.40125 8.06128 8.39788 8.11528C8.39452 8.16928 8.40265 8.22338 8.42174 8.27398C8.44084 8.32459 8.47045 8.37055 8.50862 8.40881C8.54679 8.44707 8.59264 8.47675 8.64313 8.49589C8.69362 8.51502 8.74759 8.52318 8.80147 8.5198C8.85534 8.51643 8.90788 8.50161 8.9556 8.47633C9.00333 8.45104 9.04514 8.41587 9.07826 8.37315L12.8781 4.56439C12.9464 4.49331 12.9845 4.39848 12.9845 4.29981C12.9845 4.20114 12.9464 4.10631 12.8781 4.03522Z" fill="#FEFEFE"/>
</svg>
